<mxfile host="app.diagrams.net" modified="2021-07-22T10:15:52.093Z" agent="5.0 (X11; Linux x86_64) AppleWebKit/537.36 (KHTML, like Gecko) Chrome/91.0.4472.101 Safari/537.36" etag="z26gW28N3F4N9nDLVpvg" version="14.8.0" type="github">
  <diagram id="XLec9dWL_K1sYJSYbaXD" name="Page-1">
    <mxGraphModel dx="2200" dy="970" grid="1" gridSize="10" guides="1" tooltips="1" connect="1" arrows="1" fold="1" page="1" pageScale="1" pageWidth="850" pageHeight="1100" math="0" shadow="0">
      <root>
        <mxCell id="0" />
        <mxCell id="1" parent="0" />
        <mxCell id="nDt9FeWTlvIocnUtKe9n-3" style="edgeStyle=orthogonalEdgeStyle;rounded=0;orthogonalLoop=1;jettySize=auto;html=1;exitX=1;exitY=0.5;exitDx=0;exitDy=0;entryX=0;entryY=0.5;entryDx=0;entryDy=0;" edge="1" parent="1" source="nDt9FeWTlvIocnUtKe9n-1" target="nDt9FeWTlvIocnUtKe9n-2">
          <mxGeometry relative="1" as="geometry" />
        </mxCell>
        <mxCell id="nDt9FeWTlvIocnUtKe9n-1" value="&lt;font style=&quot;font-size: 22px&quot;&gt;LGSVL&lt;/font&gt;" style="rounded=1;whiteSpace=wrap;html=1;" vertex="1" parent="1">
          <mxGeometry x="-30" y="457.5" width="220" height="80" as="geometry" />
        </mxCell>
        <mxCell id="nDt9FeWTlvIocnUtKe9n-6" style="edgeStyle=orthogonalEdgeStyle;rounded=0;orthogonalLoop=1;jettySize=auto;html=1;exitX=1;exitY=0.5;exitDx=0;exitDy=0;" edge="1" parent="1" source="nDt9FeWTlvIocnUtKe9n-2" target="nDt9FeWTlvIocnUtKe9n-4">
          <mxGeometry relative="1" as="geometry" />
        </mxCell>
        <mxCell id="nDt9FeWTlvIocnUtKe9n-7" style="edgeStyle=orthogonalEdgeStyle;rounded=0;orthogonalLoop=1;jettySize=auto;html=1;exitX=0;exitY=0.25;exitDx=0;exitDy=0;entryX=1;entryY=0.25;entryDx=0;entryDy=0;" edge="1" parent="1" source="nDt9FeWTlvIocnUtKe9n-2" target="nDt9FeWTlvIocnUtKe9n-1">
          <mxGeometry relative="1" as="geometry" />
        </mxCell>
        <mxCell id="nDt9FeWTlvIocnUtKe9n-2" value="&lt;font style=&quot;font-size: 18px&quot;&gt;1.Bridge&lt;br&gt;2. cti_poseman + cti_lgsvl&lt;br&gt;3. cti_monitor&lt;br&gt;4. fake_localization&lt;br&gt;5. launcher&lt;br&gt;6. rviz_plugins&lt;br&gt;&lt;br&gt;&lt;br&gt;&lt;/font&gt;" style="shape=process;whiteSpace=wrap;html=1;backgroundOutline=1;" vertex="1" parent="1">
          <mxGeometry x="285" y="385" width="280" height="225" as="geometry" />
        </mxCell>
        <mxCell id="nDt9FeWTlvIocnUtKe9n-8" style="edgeStyle=orthogonalEdgeStyle;rounded=0;orthogonalLoop=1;jettySize=auto;html=1;entryX=1;entryY=0.25;entryDx=0;entryDy=0;" edge="1" parent="1" source="nDt9FeWTlvIocnUtKe9n-4" target="nDt9FeWTlvIocnUtKe9n-2">
          <mxGeometry relative="1" as="geometry" />
        </mxCell>
        <mxCell id="nDt9FeWTlvIocnUtKe9n-4" value="&lt;font style=&quot;font-size: 22px&quot;&gt;1.&amp;nbsp; sim.sh&lt;br&gt;2. tf.launch&lt;br&gt;3. cti_ground_filter&lt;br&gt;4. cti_ground_segmentation&lt;br&gt;5. hdmap_roi_filter @&lt;br&gt;6. cvc_detection @&lt;br&gt;7. load vehicle_model.yaml&lt;br&gt;8. robot_config&lt;br&gt;9. cti_vector_map_loader&lt;br&gt;10. cti_cmd_vel_smoother&lt;br&gt;11. cti_object_map&lt;br&gt;12. move_controller&lt;br&gt;13. obstacle_speed_wheel&lt;br&gt;14. waypoints_follow_reverse&lt;br&gt;15. cti_prediction&lt;br&gt;16. cti_decision_planning&lt;br&gt;17. cti_monitor&lt;br&gt;&lt;/font&gt;" style="whiteSpace=wrap;html=1;aspect=fixed;" vertex="1" parent="1">
          <mxGeometry x="690" y="256.25" width="482.5" height="482.5" as="geometry" />
        </mxCell>
      </root>
    </mxGraphModel>
  </diagram>
</mxfile>
